<?xml version="1.0" encoding="UTF-8" standalone="no"?>
<!DOCTYPE svg PUBLIC "-//W3C//DTD SVG 1.1//EN"
 "http://www.w3.org/Graphics/SVG/1.1/DTD/svg11.dtd">
<!-- Generated by graphviz version 2.50.0 (0)
 -->
<!-- Pages: 1 -->
<svg width="868pt" height="311pt"
 viewBox="0.00 0.00 868.40 311.00" xmlns="http://www.w3.org/2000/svg" xmlns:xlink="http://www.w3.org/1999/xlink">
<g id="graph0" class="graph" transform="scale(1 1) rotate(0) translate(4 307)">
<polygon fill="#ffffff" stroke="transparent" points="-4,4 -4,-307 864.4,-307 864.4,4 -4,4"/>
<g id="clust1" class="cluster">
<title>cluster_82377369239</title>
<g id="a_clust1"><a xlink:title="Bulk(b=0):&#10;&#45; Σ[p] F[c, p, i=0] = F[c, i=0, m=0]&#10;&#45; enthalpy(F[c, p, i=0], T[i=0], P[i=0]) = H[i=0, m=0]&#10;&#45; P[i=0] = P[i=0, m=0]&#10;Bulk(b=1):&#10;&#45; Σ[p] F[c, p, i=0] = F[c, i=1, m=0]&#10;&#45; enthalpy(F[c, p, i=0], T[i=0], P[i=0]) = H[i=1, m=0]&#10;&#45; P[i=0] = P[i=1, m=0]&#10;Mix(m=0):&#10;&#45; Σ[i] F[c, i] = F[c, i=0, t=0]&#10;&#45; Σ(H[i] + Q[i]) = H[i=0, t=0]&#10;&#45; min P[i] = P[i=0, t=0]">
<polygon fill="#7ac083" fill-opacity="0.184314" stroke="#4e4e4e" stroke-width="0.2" points="8,-8 8,-228 307,-228 307,-8 8,-8"/>
<text text-anchor="middle" x="74" y="-204.8" font-family="Arial" font-size="24.00" fill="#4e4e4e">Mixer(x=0)</text>
</a>
</g>
</g>
<!-- 82377369267&#45;&gt;82377369274 -->
<g id="edge4" class="edge">
<title>82377369267:c&#45;&gt;82377369274:c</title>
<g id="a_edge4"><a xlink:title="o=0 &#45;&gt; i=0:&#10;H&#10;F[c]&#10;P">
<path fill="none" stroke="#4e4e4e" d="M385.71,-191C387.31,-186.98 390.6,-179.8 395.2,-175 406.82,-162.88 421.9,-152.49 436.02,-144.32"/>
<polygon fill="#4e4e4e" stroke="#4e4e4e" points="438.07,-147.18 445.11,-139.27 434.67,-141.06 438.07,-147.18"/>
</a>
</g>
<g id="a_edge4&#45;label"><a xlink:title="o=0 &#45;&gt; i=0:&#10;H&#10;F[c]&#10;P">
<text text-anchor="middle" x="416.2" y="-178.8" font-family="Arial" font-size="14.00" fill="#4e4e4e">H Fc P</text>
</a>
</g>
</g>
<!-- 82377369267&#45;&gt;82377369281 -->
<g id="edge11" class="edge">
<title>82377369267:c&#45;&gt;82377369281:c</title>
<g id="a_edge11"><a xlink:title="o=3 &#45;&gt; i=1:&#10;F[c]">
<path fill="none" stroke="#4e4e4e" d="M387.31,-194.69C404.37,-198.9 498.67,-220.17 568.2,-195 568.96,-194.72 569.72,-194.37 570.44,-193.97"/>
<polygon fill="#4e4e4e" stroke="#4e4e4e" points="572.7,-196.64 578.12,-187.54 568.21,-191.28 572.7,-196.64"/>
</a>
</g>
<g id="a_edge11&#45;label"><a xlink:title="o=3 &#45;&gt; i=1:&#10;F[c]">
<text text-anchor="middle" x="479.2" y="-210.8" font-family="Arial" font-size="14.00" fill="#4e4e4e">Fc</text>
</a>
</g>
</g>
<!-- 82377369267&#45;&gt;82377369295 -->
<g id="edge8" class="edge">
<title>82377369267:c&#45;&gt;82377369295:c</title>
<g id="a_edge8"><a xlink:title="o=1 &#45;&gt; i=1:&#10;P">
<path fill="none" stroke="#4e4e4e" d="M384.96,-197.51C385.77,-204.06 388.27,-218.36 395.2,-228 421.78,-264.95 432.68,-288 478.2,-288 478.2,-288 478.2,-288 718.2,-288 751.79,-288 762.44,-283.91 790.2,-265 791.04,-264.43 791.85,-263.77 792.62,-263.05"/>
<polygon fill="#4e4e4e" stroke="#4e4e4e" points="795.55,-265 799.07,-255.01 790.09,-260.62 795.55,-265"/>
</a>
</g>
<g id="a_edge8&#45;label"><a xlink:title="o=1 &#45;&gt; i=1:&#10;P">
<text text-anchor="middle" x="581.2" y="-291.8" font-family="Arial" font-size="14.00" fill="#4e4e4e">P</text>
</a>
</g>
</g>
<!-- 82377369267&#45;&gt;82377369302 -->
<g id="edge10" class="edge">
<title>82377369267:c&#45;&gt;82377369302:c</title>
<g id="a_edge10"><a xlink:title="o=2 &#45;&gt; i=1:&#10;P">
<path fill="none" stroke="#4e4e4e" d="M384.55,-190.32C384.57,-180.68 385.55,-154.14 395.2,-135 419.4,-86.99 424.44,-47 478.2,-47 478.2,-47 478.2,-47 718.2,-47 753.31,-47 781.6,-84.06 794,-103.46"/>
<polygon fill="#4e4e4e" stroke="#4e4e4e" points="791.04,-105.33 799.2,-112.08 797.03,-101.71 791.04,-105.33"/>
</a>
</g>
<g id="a_edge10&#45;label"><a xlink:title="o=2 &#45;&gt; i=1:&#10;P">
<text text-anchor="middle" x="581.2" y="-50.8" font-family="Arial" font-size="14.00" fill="#4e4e4e">P</text>
</a>
</g>
</g>
<!-- 82377369274&#45;&gt;82377369281 -->
<g id="edge2" class="edge">
<title>82377369274:c&#45;&gt;82377369281:c</title>
<g id="a_edge2"><a xlink:title="o=0 &#45;&gt; i=0:&#10;T&#10;L&#10;KL[c]">
<path fill="none" stroke="#4e4e4e" d="M513.61,-141.61C530.41,-150.9 550.83,-162.86 568.2,-175 568.87,-175.47 569.54,-175.96 570.21,-176.47"/>
<polygon fill="#4e4e4e" stroke="#4e4e4e" points="567.98,-179.17 577.9,-182.88 572.47,-173.79 567.98,-179.17"/>
</a>
</g>
<g id="a_edge2&#45;label"><a xlink:title="o=0 &#45;&gt; i=0:&#10;T&#10;L&#10;KL[c]">
<text text-anchor="middle" x="544.7" y="-178.8" font-family="Arial" font-size="14.00" fill="#4e4e4e">T L KLc</text>
</a>
</g>
</g>
<!-- 82377369281&#45;&gt;82377369288 -->
<g id="edge5" class="edge">
<title>82377369281:c&#45;&gt;82377369288:c</title>
<g id="a_edge5"><a xlink:title="o=0 &#45;&gt; i=0:&#10;L&#10;T&#10;F[c]&#10;KL[c]">
<path fill="none" stroke="#4e4e4e" d="M585,-185C594.62,-185 627.43,-185 657.83,-185"/>
<polygon fill="#4e4e4e" stroke="#4e4e4e" points="658.02,-188.5 668.02,-185 658.02,-181.5 658.02,-188.5"/>
</a>
</g>
<g id="a_edge5&#45;label"><a xlink:title="o=0 &#45;&gt; i=0:&#10;L&#10;T&#10;F[c]&#10;KL[c]">
<text text-anchor="middle" x="627.2" y="-188.8" font-family="Arial" font-size="14.00" fill="#4e4e4e">L T Fc KLc</text>
</a>
</g>
</g>
<!-- 82377369288&#45;&gt;82377369295 -->
<g id="edge6" class="edge">
<title>82377369288:c&#45;&gt;82377369295:c</title>
<g id="a_edge6"><a xlink:title="o=0 &#45;&gt; i=0:&#10;F[c]">
<path fill="none" stroke="#4e4e4e" d="M744.79,-206.57C760.39,-219.22 779.21,-234.49 790.58,-243.71"/>
<polygon fill="#4e4e4e" stroke="#4e4e4e" points="788.65,-246.65 798.62,-250.23 793.06,-241.21 788.65,-246.65"/>
</a>
</g>
<g id="a_edge6&#45;label"><a xlink:title="o=0 &#45;&gt; i=0:&#10;F[c]">
<text text-anchor="middle" x="782.2" y="-245.8" font-family="Arial" font-size="14.00" fill="#4e4e4e">Fc</text>
</a>
</g>
</g>
<!-- 82377369288&#45;&gt;82377369302 -->
<g id="edge9" class="edge">
<title>82377369288:c&#45;&gt;82377369302:c</title>
<g id="a_edge9"><a xlink:title="o=1 &#45;&gt; i=0:&#10;F[c]">
<path fill="none" stroke="#4e4e4e" d="M743.88,-163.24C759.71,-149.83 779.12,-133.38 790.69,-123.56"/>
<polygon fill="#4e4e4e" stroke="#4e4e4e" points="793.2,-126.03 798.56,-116.89 788.67,-120.69 793.2,-126.03"/>
</a>
</g>
<g id="a_edge9&#45;label"><a xlink:title="o=1 &#45;&gt; i=0:&#10;F[c]">
<text text-anchor="middle" x="782.2" y="-138.8" font-family="Arial" font-size="14.00" fill="#4e4e4e">Fc</text>
</a>
</g>
</g>
<!-- 82377369295&#45;&gt;82377497704 -->
<g id="edge3" class="edge">
<title>82377369295:c&#45;&gt;82377497704:w</title>
<g id="a_edge3"><a xlink:title="o=0 &#45;&gt; :&#10;F[c]&#10;P">
<path fill="none" stroke="#4e4e4e" d="M805.41,-252C812.63,-252 833.53,-252 850.9,-252"/>
</a>
</g>
<g id="a_edge3&#45;label"><a xlink:title="o=0 &#45;&gt; :&#10;F[c]&#10;P">
<text text-anchor="middle" x="827.4" y="-255.8" font-family="Arial" font-size="14.00" fill="#4e4e4e">Fc P</text>
</a>
</g>
</g>
<!-- 82377369302&#45;&gt;82377497728 -->
<g id="edge1" class="edge">
<title>82377369302:c&#45;&gt;82377497728:w</title>
<g id="a_edge1"><a xlink:title="o=0 &#45;&gt; :&#10;F[c]&#10;P">
<path fill="none" stroke="#4e4e4e" d="M805.41,-115C812.63,-115 833.53,-115 850.9,-115"/>
</a>
</g>
<g id="a_edge1&#45;label"><a xlink:title="o=0 &#45;&gt; :&#10;F[c]&#10;P">
<text text-anchor="middle" x="827.4" y="-118.8" font-family="Arial" font-size="14.00" fill="#4e4e4e">Fc P</text>
</a>
</g>
</g>
<!-- 82376792752&#45;&gt;82377369267 -->
<g id="edge7" class="edge">
<title>82376792752:e&#45;&gt;82377369267:c</title>
<g id="a_edge7"><a xlink:title=" &#45;&gt; i=1:&#10;P">
<path fill="none" stroke="#4e4e4e" d="M268.5,-242C317.07,-242 368.81,-204.59 380.27,-195.82"/>
</a>
</g>
<g id="a_edge7&#45;label"><a xlink:title=" &#45;&gt; i=1:&#10;P">
<text text-anchor="middle" x="343.5" y="-234.8" font-family="Arial" font-size="14.00" fill="#4e4e4e">P</text>
</a>
</g>
</g>
<!-- 82377369260&#45;&gt;82377369267 -->
<g id="edge17" class="edge">
<title>82377369260:c&#45;&gt;82377369267:c</title>
<g id="a_edge17"><a xlink:title="o=0 &#45;&gt; i=0:&#10;F[c]&#10;H&#10;P&#10;Q">
<path fill="none" stroke="#4e4e4e" d="M299.15,-138.31C321.92,-146.65 350.78,-159.73 372,-178 373.46,-179.26 374.8,-180.76 376,-182.33"/>
<polygon fill="#4e4e4e" stroke="#4e4e4e" points="373.03,-184.19 381.21,-190.92 379.01,-180.56 373.03,-184.19"/>
</a>
</g>
<g id="a_edge17&#45;label"><a xlink:title="o=0 &#45;&gt; i=0:&#10;F[c]&#10;H&#10;P&#10;Q">
<text text-anchor="middle" x="343.5" y="-181.8" font-family="Arial" font-size="14.00" fill="#4e4e4e">Fc H P Q</text>
</a>
</g>
</g>
<!-- 82377369253&#45;&gt;82377369260 -->
<g id="edge15" class="edge">
<title>82377369253:c&#45;&gt;82377369260:c</title>
<g id="a_edge15"><a xlink:title="o=0 &#45;&gt; i=1:&#10;H&#10;F[c]&#10;P">
<path fill="none" stroke="#4e4e4e" d="M166.34,-96.81C181.25,-101.59 198.64,-107.17 214.38,-112.21"/>
<polygon fill="#4e4e4e" stroke="#4e4e4e" points="213.35,-115.56 223.94,-115.28 215.48,-108.89 213.35,-115.56"/>
</a>
</g>
<g id="a_edge15&#45;label"><a xlink:title="o=0 &#45;&gt; i=1:&#10;H&#10;F[c]&#10;P">
<text text-anchor="middle" x="195" y="-115.8" font-family="Arial" font-size="14.00" fill="#4e4e4e">H Fc P</text>
</a>
</g>
</g>
<!-- 82377369246&#45;&gt;82377369260 -->
<g id="edge14" class="edge">
<title>82377369246:c&#45;&gt;82377369260:c</title>
<g id="a_edge14"><a xlink:title="o=0 &#45;&gt; i=0:&#10;H&#10;F[c]&#10;P">
<path fill="none" stroke="#4e4e4e" d="M166.34,-153.59C181.11,-149.42 198.31,-144.56 213.94,-140.15"/>
<polygon fill="#4e4e4e" stroke="#4e4e4e" points="215.26,-143.41 223.94,-137.33 213.36,-136.68 215.26,-143.41"/>
</a>
</g>
<g id="a_edge14&#45;label"><a xlink:title="o=0 &#45;&gt; i=0:&#10;H&#10;F[c]&#10;P">
<text text-anchor="middle" x="195" y="-153.8" font-family="Arial" font-size="14.00" fill="#4e4e4e">H Fc P</text>
</a>
</g>
</g>
<!-- 82377495340&#45;&gt;82377369246 -->
<g id="edge12" class="edge">
<title>82377495340:e&#45;&gt;82377369246:c</title>
<g id="a_edge12"><a xlink:title=" &#45;&gt; i=0:&#10;F[c, p]&#10;T&#10;P">
<path fill="none" stroke="#4e4e4e" d="M27,-164C48.11,-164 71.72,-164 90.75,-164"/>
</a>
</g>
<g id="a_edge12&#45;label"><a xlink:title=" &#45;&gt; i=0:&#10;F[c, p]&#10;T&#10;P">
<text text-anchor="middle" x="59" y="-167.8" font-family="Arial" font-size="14.00" fill="#4e4e4e">Fcp T P</text>
</a>
</g>
</g>
<!-- 82377495344&#45;&gt;82377369253 -->
<g id="edge13" class="edge">
<title>82377495344:e&#45;&gt;82377369253:c</title>
<g id="a_edge13"><a xlink:title=" &#45;&gt; i=0:&#10;F[c, p]&#10;T&#10;P">
<path fill="none" stroke="#4e4e4e" d="M27,-85C48.11,-85 71.72,-85 90.75,-85"/>
</a>
</g>
<g id="a_edge13&#45;label"><a xlink:title=" &#45;&gt; i=0:&#10;F[c, p]&#10;T&#10;P">
<text text-anchor="middle" x="59" y="-88.8" font-family="Arial" font-size="14.00" fill="#4e4e4e">Fcp T P</text>
</a>
</g>
</g>
<!-- 82375296008&#45;&gt;82377369260 -->
<g id="edge16" class="edge">
<title>82375296008:e&#45;&gt;82377369260:c</title>
<g id="a_edge16"><a xlink:title=" &#45;&gt; i=2:&#10;Q">
<path fill="none" stroke="#4e4e4e" d="M135.5,-22C186.94,-22 228.27,-74.78 247.97,-105.5"/>
</a>
</g>
<g id="a_edge16&#45;label"><a xlink:title=" &#45;&gt; i=2:&#10;Q">
<text text-anchor="middle" x="195" y="-65.8" font-family="Arial" font-size="14.00" fill="#4e4e4e">Q</text>
</a>
</g>
</g>
<!-- 82377369267 -->
<g id="node1" class="node">
<title>82377369267</title>
<g id="a_node1"><a xlink:title="F[c, i=0] = F[c, i=0, l=0]&#10;F[c, i=0] = F[c, i=1, t=1]&#10;P[i=1] = P[i=0, l=0]&#10;P[i=1] = P[i=1, t=2]&#10;P[i=1] = P[i=1, t=3]&#10;H[i=0] = H[i=0, l=0]">
<ellipse fill="#4e4e4e" stroke="transparent" cx="383.6" cy="-194" rx="3.6" ry="3.6"/>
</a>
</g>
</g>
<!-- 82377369274 -->
<g id="node2" class="node">
<title>82377369274</title>
<g id="a_node2"><a xlink:title="lle(H[i=0], F[c, i=0], P[i=0]) = KLc, L, T">
<defs>
<linearGradient id="l_0" gradientUnits="userSpaceOnUse" x1="445.2" y1="-124" x2="513.2" y2="-124" >
<stop offset="0" style="stop-color:white;stop-opacity:1.;"/>
<stop offset="1" style="stop-color:#cdcdcd;stop-opacity:1.;"/>
</linearGradient>
</defs>
<polygon fill="url(#l_0)" stroke="#4e4e4e" points="513.2,-145.5 445.2,-145.5 445.2,-102.5 513.2,-102.5 513.2,-145.5"/>
<text text-anchor="middle" x="479.2" y="-120.3" font-family="Arial" font-size="14.00">LLE(l=0)</text>
</a>
</g>
</g>
<!-- 82377369281 -->
<g id="node3" class="node">
<title>82377369281</title>
<g id="a_node3"><a xlink:title="T[i=0] = T[i=0, ϕ=0]&#10;L[i=0] = L[i=0, ϕ=0]&#10;KL[c, i=0] = KL[c, i=0, ϕ=0]&#10;F[c, i=1] = F[c, i=0, ϕ=0]">
<ellipse fill="#4e4e4e" stroke="transparent" cx="581.2" cy="-185" rx="3.6" ry="3.6"/>
</a>
</g>
</g>
<!-- 82377369288 -->
<g id="node4" class="node">
<title>82377369288</title>
<g id="a_node4"><a xlink:title="F[c, i=0, t=2] = (F[c, i=0] · (1 &#45; L[i=0])) / (L[i=0] · (KL[c, i=0] &#45; 1) + 1)&#10;F[c, i=0, t=3] = (F[c, i=0] · L[i=0]) / (L[i=0] · (KL[c, i=0] &#45; 1) + 1)">
<defs>
<linearGradient id="l_1" gradientUnits="userSpaceOnUse" x1="668.2" y1="-185" x2="766.2" y2="-185" >
<stop offset="0" style="stop-color:white;stop-opacity:1.;"/>
<stop offset="1" style="stop-color:#cdcdcd;stop-opacity:1.;"/>
</linearGradient>
</defs>
<polygon fill="url(#l_1)" stroke="#4e4e4e" points="766.2,-206.5 668.2,-206.5 668.2,-163.5 766.2,-163.5 766.2,-206.5"/>
<text text-anchor="middle" x="717.2" y="-181.3" font-family="Arial" font-size="14.00">Partition(ϕ=0)</text>
</a>
</g>
</g>
<!-- 82377369295 -->
<g id="node5" class="node">
<title>82377369295</title>
<g id="a_node5"><a xlink:title="F[c, i=0] = F[c, o=0]&#10;P[i=1] = P[o=0]">
<ellipse fill="#4e4e4e" stroke="transparent" cx="801.8" cy="-252" rx="3.6" ry="3.6"/>
</a>
</g>
</g>
<!-- 82377369302 -->
<g id="node6" class="node">
<title>82377369302</title>
<g id="a_node6"><a xlink:title="F[c, i=0] = F[c, o=0]&#10;P[i=1] = P[o=0]">
<ellipse fill="#4e4e4e" stroke="transparent" cx="801.8" cy="-115" rx="3.6" ry="3.6"/>
</a>
</g>
</g>
<!-- 82377497728 -->
<g id="node7" class="node">
<title>82377497728</title>
<g id="a_node7"><a xlink:title="o=0 &#45;&gt; :&#10;F[c]&#10;P">
<polygon fill="#f98f60" stroke="#4e4e4e" points="860.4,-115 852.15,-122 852.15,-108 860.4,-115"/>
</a>
</g>
</g>
<!-- 82377497704 -->
<g id="node8" class="node">
<title>82377497704</title>
<g id="a_node8"><a xlink:title="o=0 &#45;&gt; :&#10;F[c]&#10;P">
<polygon fill="#f98f60" stroke="#4e4e4e" points="860.4,-252 852.15,-259 852.15,-245 860.4,-252"/>
</a>
</g>
</g>
<!-- 82376792752 -->
<g id="node9" class="node">
<title>82376792752</title>
<g id="a_node9"><a xlink:title=" &#45;&gt; i=1:&#10;P">
<polygon fill="#f98f60" stroke="#4e4e4e" points="261.5,-247.5 256,-242 261.5,-236.5 267,-242 261.5,-247.5"/>
</a>
</g>
</g>
<!-- 82377369260 -->
<g id="node10" class="node">
<title>82377369260</title>
<g id="a_node10"><a xlink:title="Σ[i] F[c, i] = F[c, i=0, t=0]&#10;Σ(H[i] + Q[i]) = H[i=0, t=0]&#10;min P[i] = P[i=0, t=0]">
<defs>
<linearGradient id="l_2" gradientUnits="userSpaceOnUse" x1="224" y1="-127" x2="299" y2="-127" >
<stop offset="0" style="stop-color:white;stop-opacity:1.;"/>
<stop offset="1" style="stop-color:#cdcdcd;stop-opacity:1.;"/>
</linearGradient>
</defs>
<polygon fill="url(#l_2)" stroke="#4e4e4e" points="299,-148.5 224,-148.5 224,-105.5 299,-105.5 299,-148.5"/>
<text text-anchor="middle" x="261.5" y="-123.3" font-family="Arial" font-size="14.00">Mix(m=0)</text>
</a>
</g>
</g>
<!-- 82377369253 -->
<g id="node11" class="node">
<title>82377369253</title>
<g id="a_node11"><a xlink:title="Σ[p] F[c, p, i=0] = F[c, i=1, m=0]&#10;enthalpy(F[c, p, i=0], T[i=0], P[i=0]) = H[i=1, m=0]&#10;P[i=0] = P[i=1, m=0]">
<defs>
<linearGradient id="l_3" gradientUnits="userSpaceOnUse" x1="91" y1="-85" x2="166" y2="-85" >
<stop offset="0" style="stop-color:white;stop-opacity:1.;"/>
<stop offset="1" style="stop-color:#cdcdcd;stop-opacity:1.;"/>
</linearGradient>
</defs>
<polygon fill="url(#l_3)" stroke="#4e4e4e" points="166,-106.5 91,-106.5 91,-63.5 166,-63.5 166,-106.5"/>
<text text-anchor="middle" x="128.5" y="-81.3" font-family="Arial" font-size="14.00">Bulk(b=1)</text>
</a>
</g>
</g>
<!-- 82377369246 -->
<g id="node12" class="node">
<title>82377369246</title>
<g id="a_node12"><a xlink:title="Σ[p] F[c, p, i=0] = F[c, i=0, m=0]&#10;enthalpy(F[c, p, i=0], T[i=0], P[i=0]) = H[i=0, m=0]&#10;P[i=0] = P[i=0, m=0]">
<defs>
<linearGradient id="l_4" gradientUnits="userSpaceOnUse" x1="91" y1="-164" x2="166" y2="-164" >
<stop offset="0" style="stop-color:white;stop-opacity:1.;"/>
<stop offset="1" style="stop-color:#cdcdcd;stop-opacity:1.;"/>
</linearGradient>
</defs>
<polygon fill="url(#l_4)" stroke="#4e4e4e" points="166,-185.5 91,-185.5 91,-142.5 166,-142.5 166,-185.5"/>
<text text-anchor="middle" x="128.5" y="-160.3" font-family="Arial" font-size="14.00">Bulk(b=0)</text>
</a>
</g>
</g>
<!-- 82377495340 -->
<g id="node13" class="node">
<title>82377495340</title>
<g id="a_node13"><a xlink:title=" &#45;&gt; i=0:&#10;F[c, p]&#10;T&#10;P">
<polygon fill="#f98f60" stroke="#4e4e4e" points="21.5,-169.5 16,-164 21.5,-158.5 27,-164 21.5,-169.5"/>
</a>
</g>
</g>
<!-- 82377495344 -->
<g id="node14" class="node">
<title>82377495344</title>
<g id="a_node14"><a xlink:title=" &#45;&gt; i=0:&#10;F[c, p]&#10;T&#10;P">
<polygon fill="#f98f60" stroke="#4e4e4e" points="21.5,-90.5 16,-85 21.5,-79.5 27,-85 21.5,-90.5"/>
</a>
</g>
</g>
<!-- 82375296008 -->
<g id="node15" class="node">
<title>82375296008</title>
<g id="a_node15"><a xlink:title=" &#45;&gt; i=2:&#10;Q">
<polygon fill="#f98f60" stroke="#4e4e4e" points="128.5,-27.5 123,-22 128.5,-16.5 134,-22 128.5,-27.5"/>
</a>
</g>
</g>
</g>
</svg>
